<?xml version="1.0" encoding="UTF-8"?>
<svg width="52px" height="52px" viewBox="0 0 52 52" version="1.1" xmlns="http://www.w3.org/2000/svg" xmlns:xlink="http://www.w3.org/1999/xlink">
    <title>logo</title>
    <g id="logo" stroke="none" fill="none" fill-rule="evenodd" stroke-width="1">
        <g id="编组" fill="#4983F7">
            <rect id="矩形" fill-rule="nonzero" x="0" y="0" width="52" height="52" rx="12"></rect>
        </g>
        <g id="路径" fill="#E0EDFF">
            <path d="M41.5063999,28.6936001 C41.5035434,29.7176759 40.6740758,30.5471435 39.6499999,30.55 C38.6259241,30.5471435 37.7964565,29.7176759 37.7935999,28.6936 L37.7935999,22.2820001 L26.6499999,33.5192 C26.3192345,33.8863416 25.8439618,34.0897583 25.3499999,34.0756001 C24.8596899,34.0714734 24.391473,33.8710766 24.05,33.5192 L19.4063999,28.8756001 L12.9064,35.282 C12.5653609,35.6348332 12.097089,35.83619 11.6063999,35.841 C11.1157109,35.83619 10.6474392,35.6348332 10.3064,35.282 C9.95029259,34.9433421 9.74869927,34.4734283 9.74869927,33.982 C9.74869927,33.4905718 9.95029259,33.0206579 10.3064,32.682 L18.0153999,24.9755999 C18.3540579,24.6194927 18.8239718,24.4178993 19.3154,24.4178993 C19.8068281,24.4178993 20.2767421,24.6194927 20.6153999,24.9755999 L25.2563999,29.6192 L35.1935999,19.682 L28.6935999,19.682 C27.6685089,19.6805724 26.8374623,18.8506881 26.8346,17.8256 C26.8346,16.8038 27.6717999,15.9692 28.6935999,15.9692 L40.1153999,15.9692 C40.2063999,15.9692 40.2063999,15.9692 40.2999999,16.0628 C40.3935999,16.0628 40.3935999,16.1537999 40.4845999,16.1537999 C40.5781999,16.1537999 40.5781999,16.2473999 40.6717999,16.2473999 C40.7653999,16.3409999 40.8563999,16.3409999 40.8563999,16.432 L40.9499999,16.5256 C41.0435999,16.6192 41.1345999,16.7128 41.1345999,16.8038 C41.1345999,16.8974 41.2281999,16.8974 41.2281999,16.991 C41.2281999,17.0819999 41.3217999,17.0819999 41.3217999,17.1755999 C41.3217999,17.2691999 41.3217999,17.2691999 41.4153999,17.3627999 C41.4153999,17.4538 41.4153999,17.4538 41.5063999,17.5474 L41.5063999,28.691 L41.5063999,28.6936001 Z" fill-rule="nonzero"></path>
        </g>
    </g>
</svg>